HIERARCHY
ROOT Hips
{
	OFFSET 53.336899 -11.285416 95.691498
	CHANNELS 6 Xposition Yposition Zposition Xrotation Yrotation Zrotation
	JOINT spine
	{
		OFFSET 0.000000 -0.458069 7.965683
		CHANNELS 3 Xrotation Yrotation Zrotation
		JOINT spine1
		{
			OFFSET 0.000000 -0.000001 10.243103
			CHANNELS 3 Xrotation Yrotation Zrotation
			JOINT spine2
			{
				OFFSET 0.000000 -0.000002 9.814751
				CHANNELS 3 Xrotation Yrotation Zrotation
				JOINT Neck
				{
					OFFSET 0.000000 -1.201384 25.198601
					CHANNELS 3 Xrotation Yrotation Zrotation
					JOINT Head
					{
						OFFSET 0.000000 -0.000002 7.613144
						CHANNELS 3 Xrotation Yrotation Zrotation
						End Site
						{
							OFFSET 0.000000 6.077327 18.428101
						}
					}
				}
				JOINT RightShoulder
				{
					OFFSET -4.132698 0.575449 10.599205
					CHANNELS 3 Xrotation Yrotation Zrotation
					JOINT RightArm
					{
						OFFSET 0.000000 -0.000002 13.901794
						CHANNELS 3 Xrotation Yrotation Zrotation
						JOINT RightArmRoll
						{
							OFFSET 0.000000 -0.000002 7.017883
							CHANNELS 3 Xrotation Yrotation Zrotation
							JOINT RightForeArm
							{
								OFFSET 0.000000 -0.000003 20.440598
								CHANNELS 3 Xrotation Yrotation Zrotation
								JOINT RightForeArmRoll
								{
									OFFSET 0.000000 -0.000001 7.875153
									CHANNELS 3 Xrotation Yrotation Zrotation
									JOINT RightHand
									{
										OFFSET 0.000000 -0.000003 15.803696
										CHANNELS 3 Xrotation Yrotation Zrotation
										End Site
										{
											OFFSET 0.000000 0.000000 0.100006
										}
									}
								}
							}
						}
					}
				}
				JOINT LeftShoulder
				{
					OFFSET 4.132698 0.575449 10.599205
					CHANNELS 3 Xrotation Yrotation Zrotation
					JOINT LeftArm
					{
						OFFSET 0.000000 -0.000002 13.901794
						CHANNELS 3 Xrotation Yrotation Zrotation
						JOINT LeftArmRoll
						{
							OFFSET 0.000000 -0.000002 7.017883
							CHANNELS 3 Xrotation Yrotation Zrotation
							JOINT LeftForeArm
							{
								OFFSET 0.000000 -0.000003 20.440598
								CHANNELS 3 Xrotation Yrotation Zrotation
								JOINT LeftForeArmRoll
								{
									OFFSET 0.000000 -0.000001 7.875153
									CHANNELS 3 Xrotation Yrotation Zrotation
									JOINT LeftHand
									{
										OFFSET 0.000000 -0.000003 15.803696
										CHANNELS 3 Xrotation Yrotation Zrotation
										End Site
										{
											OFFSET 0.000000 0.000000 0.100006
										}
									}
								}
							}
						}
					}
				}
			}
		}
	}
	JOINT RightUpLeg
	{
		OFFSET -7.060478 1.086090 -1.294701
		CHANNELS 3 Xrotation Yrotation Zrotation
		JOINT RightUpLegRoll
		{
			OFFSET 0.000000 -0.000003 18.530800
			CHANNELS 3 Xrotation Yrotation Zrotation
			JOINT RightLeg
			{
				OFFSET 0.000000 0.000004 -22.947601
				CHANNELS 3 Xrotation Yrotation Zrotation
				JOINT RightLegRoll
				{
					OFFSET 0.000000 -0.000004 23.022598
					CHANNELS 3 Xrotation Yrotation Zrotation
					JOINT RightFoot
					{
						OFFSET 0.000000 -0.000004 19.162506
						CHANNELS 3 Xrotation Yrotation Zrotation
						JOINT RightToeBase
						{
							OFFSET 0.000000 -0.000002 16.018799
							CHANNELS 3 Xrotation Yrotation Zrotation
							End Site
							{
								OFFSET 0.006790 0.894204 7.757812
							}
						}
					}
				}
			}
		}
	}
	JOINT LeftUpLeg
	{
		OFFSET 7.060478 1.086090 -1.294701
		CHANNELS 3 Xrotation Yrotation Zrotation
		JOINT LeftUpLegRoll
		{
			OFFSET 0.000000 -0.000003 18.530899
			CHANNELS 3 Xrotation Yrotation Zrotation
			JOINT LeftLeg
			{
				OFFSET 0.000000 -0.000004 22.947502
				CHANNELS 3 Xrotation Yrotation Zrotation
				JOINT LeftLegRoll
				{
					OFFSET 0.000000 -0.000004 23.235504
					CHANNELS 3 Xrotation Yrotation Zrotation
					JOINT LeftFoot
					{
						OFFSET 0.000000 -0.000003 18.949600
						CHANNELS 3 Xrotation Yrotation Zrotation
						JOINT LeftToeBase
						{
							OFFSET 0.000000 -0.000003 16.018799
							CHANNELS 3 Xrotation Yrotation Zrotation
							End Site
							{
								OFFSET -0.030430 0.894206 7.757812
							}
						}
					}
				}
			}
		}
	}
}
MOTION
Frames: 10
Frame Time: 0.041667
54.136497 -12.690215 95.601189 0.293880 -1.827768 3.558152 -2.898744 0.270871 0.101548 -1.795445 0.521754 0.213780 -0.150345 0.524276 0.207514 32.925671 5.419017 -3.046345 -3.495292 -7.683593 -1.776250 -15.778265 -2.455174 -16.747993 -136.016920 -186.178690 -80.828343 -0.000000 0.000007 -0.000002 27.571401 17.392911 3.094583 0.000001 -0.000001 -3.008121 -5.000130 -8.000429 -0.000043 -15.628608 11.962905 17.000465 -137.407888 193.846738 90.717985 -0.000001 -0.000000 0.000002 23.330830 -15.073784 -2.175080 -0.000000 -0.000020 3.010810 -5.000135 8.000820 0.000110 0.200547 -171.017049 0.222150 -179.999991 0.000005 -1.085995 172.246593 -1.951015 -0.686581 -0.000006 -0.000002 0.220585 72.126504 6.842878 2.044312 25.595856 -7.355615 0.213557 0.743388 176.019330 1.877452 -0.000020 -0.000004 -1.123420 -4.051839 1.557340 0.160240 -0.000003 -0.000001 -0.039945 69.034163 -6.950310 -1.973847 25.457761 7.355511 -0.001289 
54.150795 -12.656316 95.597397 0.268490 -1.822962 3.573280 -2.896851 0.270866 0.102241 -1.792015 0.522527 0.215176 -0.146919 0.525066 0.208901 32.893955 5.397230 -3.044096 -3.433564 -7.671820 -1.775136 -15.768014 -2.620013 -16.738813 -135.988534 -186.047482 -80.911480 -0.000001 0.000009 -0.000002 27.486450 17.359660 3.084232 -0.000001 0.000000 -3.008121 -5.000129 -8.000429 -0.000045 -15.595639 12.110898 16.952987 -137.367153 193.712429 90.809571 0.000000 -0.000001 0.000001 23.268581 -15.000439 -2.165100 0.000002 -0.000018 3.010790 -5.000136 8.000820 0.000110 0.223255 -171.026065 0.224168 -179.999991 0.000005 -1.087006 172.230556 -1.951929 -0.687262 -0.000005 -0.000001 0.221367 72.136592 6.842872 2.043695 25.597170 -7.355618 0.215004 0.762796 176.011352 1.871678 -0.000020 -0.000004 -1.124270 -4.059155 1.553396 0.160597 -0.000003 -0.000001 -0.039924 69.032462 -6.950608 -1.973409 25.458664 7.355509 -0.002590 
54.143196 -12.668213 95.600990 0.242933 -1.818076 3.588486 -2.894913 0.270938 0.102852 -1.788555 0.523590 0.216411 -0.143453 0.526144 0.210123 32.860020 5.368806 -3.040588 -3.367900 -7.652438 -1.774030 -15.760571 -2.790081 -16.734778 -135.953140 -185.921069 -80.987226 -0.000001 0.000010 -0.000002 27.384074 17.333712 3.075633 0.000000 -0.000002 -3.008120 -5.000129 -8.000428 -0.000044 -15.561828 12.257447 16.904020 -137.324150 193.571263 90.897790 -0.000001 0.000001 0.000001 23.206637 -14.928007 -2.154845 0.000000 -0.000018 3.010760 -5.000135 8.000818 0.000110 0.244823 -171.036078 0.225845 -179.999991 0.000005 -1.088003 172.211773 -1.952830 -0.688036 -0.000007 -0.000001 0.222218 72.148408 6.842859 2.043170 25.598383 -7.355624 0.216357 0.782890 176.004385 1.866915 -0.000020 -0.000004 -1.125130 -4.065997 1.548196 0.160956 -0.000003 -0.000001 -0.039904 69.030987 -6.950954 -1.972767 25.459580 7.355509 -0.003952 
54.132698 -12.695014 95.581398 0.217272 -1.813098 3.603673 -2.892933 0.271074 0.103374 -1.785085 0.524893 0.217474 -0.139983 0.527459 0.211169 32.824465 5.335000 -3.036031 -3.299176 -7.626907 -1.772931 -15.755448 -2.965463 -16.734918 -135.912063 -185.798726 -81.056614 -0.000000 0.000007 -0.000002 27.266414 17.313884 3.068447 0.000002 -0.000001 -3.008119 -5.000129 -8.000429 -0.000043 -15.527423 12.403304 16.853936 -137.279330 193.424059 90.983078 0.000001 0.000001 0.000001 23.144441 -14.856274 -2.144372 -0.000001 -0.000018 3.010739 -5.000133 8.000818 0.000110 0.265328 -171.046091 0.227208 -179.999991 0.000005 -1.089000 172.190585 -1.953719 -0.688894 -0.000006 -0.000001 0.223123 72.161714 6.842846 2.042551 25.599797 -7.355620 0.217679 0.803543 175.998402 1.862992 -0.000020 -0.000005 -1.125990 -4.072417 1.541949 0.161320 -0.000003 -0.000001 -0.039884 69.029519 -6.951296 -1.972323 25.460591 7.355504 -0.005396 
54.133198 -12.689216 95.586197 0.191582 -1.808012 3.618773 -2.890951 0.271260 0.103801 -1.781655 0.526389 0.218347 -0.136553 0.528965 0.212025 32.787985 5.297060 -3.030639 -3.228274 -7.596717 -1.771812 -15.752161 -3.146272 -16.738550 -135.866096 -185.679703 -81.123700 -0.000000 0.000008 -0.000003 27.135616 17.299030 3.062436 -0.000001 -0.000000 -3.008119 -5.000130 -8.000430 -0.000043 -15.492302 12.549838 16.802750 -137.233377 193.271787 91.066926 -0.000001 -0.000001 0.000001 23.081852 -14.784890 -2.133693 0.000000 -0.000018 3.010720 -5.000135 8.000819 0.000110 0.284843 -171.056105 0.228277 -179.999991 0.000005 -1.089998 172.167390 -1.954611 -0.689822 -0.000007 -0.000001 0.224069 72.176112 6.842845 2.041969 25.601106 -7.355622 0.218914 0.824629 175.992405 1.859764 -0.000020 -0.000003 -1.126860 -4.078426 1.534825 0.161686 -0.000003 -0.000001 -0.039865 69.028248 -6.951654 -1.971767 25.461695 7.355500 -0.006960 
54.125298 -12.708815 95.578293 0.165933 -1.802814 3.633699 -2.888992 0.271482 0.104125 -1.778306 0.528029 0.219020 -0.133205 0.530614 0.212679 32.751157 5.256248 -3.024615 -3.156037 -7.563315 -1.770647 -15.750230 -3.332623 -16.744796 -135.816358 -185.563262 -81.187556 0.000000 0.000010 -0.000002 26.993778 17.287803 3.057360 -0.000001 -0.000002 -3.008120 -5.000128 -8.000429 -0.000044 -15.456710 12.697713 16.750906 -137.186863 193.115566 91.150015 -0.000001 -0.000001 -0.000001 23.018410 -14.713428 -2.122913 0.000002 -0.000018 3.010700 -5.000133 8.000820 0.000110 0.303429 -171.067128 0.229072 -179.999991 0.000005 -1.089998 172.142610 -1.954495 -0.690667 -0.000006 -0.000002 0.225041 72.191459 6.842831 2.041427 25.602524 -7.355619 0.220124 0.846016 175.985438 1.857037 -0.000020 -0.000004 -1.127730 -4.084052 1.527025 0.162053 -0.000003 -0.000001 -0.039846 69.027005 -6.952045 -1.971218 25.462814 7.355507 -0.008665 
54.123196 -12.709514 95.576607 0.140399 -1.797497 3.648363 -2.887092 0.271733 0.104342 -1.775077 0.529767 0.219480 -0.129975 0.532357 0.213118 32.714554 5.213835 -3.018163 -3.083354 -7.528173 -1.769395 -15.749062 -3.524601 -16.752955 -135.763943 -185.448652 -81.250243 0.000000 0.000007 -0.000003 26.843178 17.279129 3.052799 -0.000001 -0.000001 -3.008119 -5.000130 -8.000429 -0.000045 -15.420723 12.848172 16.698752 -137.140240 192.956136 91.232770 0.000001 -0.000001 -0.000001 22.954090 -14.641707 -2.111917 0.000002 -0.000019 3.010680 -5.000132 8.000819 0.000109 0.321165 -171.077141 0.229627 -179.999991 0.000005 -1.090994 172.116587 -1.955360 -0.691692 -0.000008 -0.000002 0.226025 72.207469 6.842815 2.040945 25.603934 -7.355623 0.221298 0.867578 175.979469 1.854706 -0.000020 -0.000004 -1.128610 -4.089338 1.518716 0.162421 -0.000004 -0.000001 -0.039827 69.025953 -6.952410 -1.970553 25.464122 7.355499 -0.010567 
54.120895 -12.709716 95.579399 0.115048 -1.792038 3.662697 -2.885261 0.271994 0.104443 -1.772007 0.531553 0.219712 -0.126906 0.534146 0.213328 32.678763 5.171062 -3.011462 -3.011082 -7.492750 -1.768013 -15.748188 -3.722320 -16.761921 -135.710039 -185.335134 -81.313819 0.000001 0.000009 -0.000003 26.685819 17.271691 3.048735 -0.000001 0.000001 -3.008120 -5.000130 -8.000429 -0.000044 -15.384311 13.002292 16.646349 -137.094177 192.794630 91.316897 -0.000001 0.000000 -0.000001 22.888418 -14.569121 -2.100889 -0.000000 -0.000019 3.010660 -5.000134 8.000820 0.000110 0.338122 -171.088152 0.229951 -179.999991 0.000005 -1.092006 172.089758 -1.955234 -0.692607 -0.000006 -0.000002 0.227009 72.223698 6.842840 2.040353 25.605351 -7.355617 0.222437 0.889186 175.973472 1.852609 -0.000020 -0.000004 -1.129490 -4.094304 1.510109 0.162790 -0.000003 -0.000001 -0.039809 69.024922 -6.952778 -1.970086 25.465529 7.355504 -0.012671 
54.117695 -12.716213 95.574486 0.089956 -1.786440 3.676614 -2.883543 0.272256 0.104425 -1.769137 0.533341 0.219703 -0.124038 0.535933 0.213297 32.644459 5.129197 -3.004721 -2.940086 -7.458520 -1.766438 -15.747107 -3.925898 -16.771200 -135.655712 -185.222012 -81.378391 -0.000001 0.000007 -0.000002 26.523959 17.264329 3.044580 -0.000001 0.000000 -3.008119 -5.000130 -8.000429 -0.000044 -15.347739 13.160841 16.594056 -137.049112 192.631907 91.402937 0.000001 0.000001 0.000001 22.821064 -14.495598 -2.089757 0.000001 -0.000017 3.010629 -5.000133 8.000819 0.000110 0.354367 -171.099176 0.230074 -179.999991 0.000005 -1.093003 172.062451 -1.956091 -0.693676 -0.000006 -0.000001 0.227979 72.240131 6.842816 2.039843 25.606763 -7.355624 0.223581 0.910714 175.967502 1.850572 -0.000020 -0.000003 -1.130370 -4.098969 1.501362 0.163157 -0.000003 -0.000001 -0.039791 69.023966 -6.953151 -1.969415 25.467151 7.355496 -0.015030 
54.126999 -12.694214 95.577492 0.065193 -1.780680 3.690025 -2.881963 0.272505 0.104279 -1.766507 0.535081 0.219440 -0.121409 0.537671 0.213014 32.612319 5.089504 -2.998133 -2.871235 -7.426930 -1.764608 -15.745357 -4.135418 -16.779777 -135.602150 -185.108508 -81.448018 -0.000000 0.000009 -0.000002 26.359833 17.255710 3.040032 0.000001 -0.000000 -3.008109 -5.000130 -8.000429 -0.000042 -15.310882 13.325074 16.542066 -137.005849 192.469048 91.491122 -0.000000 0.000000 0.000001 22.751888 -14.420601 -2.078579 0.000003 -0.000018 3.010610 -5.000136 8.000818 0.000110 0.369974 -171.110172 0.230018 -179.999991 0.000004 -1.093003 172.035130 -1.955961 -0.694608 -0.000006 -0.000001 0.228919 72.256346 6.842793 2.039347 25.608179 -7.355619 0.224711 0.932030 175.961533 1.848446 -0.000020 -0.000004 -1.131250 -4.103365 1.492687 0.163524 -0.000003 -0.000001 -0.039774 69.023037 -6.953523 -1.968843 25.468969 7.355493 -0.017664 
